<svg width="137" height="29" viewBox="0 0 137 29" fill="none" xmlns="http://www.w3.org/2000/svg">
<rect x="1" y="1" width="135" height="27" rx="7" fill="#290000" stroke="#C7C7C7" stroke-width="2"/>
<path d="M27.7783 16.6426C27.7783 16.1445 27.6025 15.7637 27.251 15.5C26.8994 15.2305 26.2666 14.9492 25.3525 14.6562C24.4385 14.3574 23.7148 14.0645 23.1816 13.7773C21.7285 12.9922 21.002 11.9346 21.002 10.6045C21.002 9.91309 21.1953 9.29785 21.582 8.75879C21.9746 8.21387 22.5342 7.78906 23.2607 7.48438C23.9932 7.17969 24.8135 7.02734 25.7217 7.02734C26.6357 7.02734 27.4502 7.19434 28.165 7.52832C28.8799 7.85645 29.4336 8.32227 29.8262 8.92578C30.2246 9.5293 30.4238 10.2148 30.4238 10.9824H27.7871C27.7871 10.3965 27.6025 9.94238 27.2334 9.62012C26.8643 9.29199 26.3457 9.12793 25.6777 9.12793C25.0332 9.12793 24.5322 9.26562 24.1748 9.54102C23.8174 9.81055 23.6387 10.168 23.6387 10.6133C23.6387 11.0293 23.8467 11.3779 24.2627 11.6592C24.6846 11.9404 25.3027 12.2041 26.1172 12.4502C27.6172 12.9014 28.71 13.4609 29.3955 14.1289C30.0811 14.7969 30.4238 15.6289 30.4238 16.625C30.4238 17.7324 30.0049 18.6025 29.167 19.2354C28.3291 19.8623 27.2012 20.1758 25.7832 20.1758C24.7988 20.1758 23.9023 19.9971 23.0938 19.6396C22.2852 19.2764 21.667 18.7812 21.2393 18.1543C20.8174 17.5273 20.6064 16.8008 20.6064 15.9746H23.252C23.252 17.3867 24.0957 18.0928 25.7832 18.0928C26.4102 18.0928 26.8994 17.9668 27.251 17.7148C27.6025 17.457 27.7783 17.0996 27.7783 16.6426ZM40.6104 15.333C40.6104 16.7979 40.2764 17.9727 39.6084 18.8574C38.9463 19.7363 38.0498 20.1758 36.9189 20.1758C35.958 20.1758 35.1816 19.8418 34.5898 19.1738V23.6562H32.0498V10.4902H34.4053L34.4932 11.4219C35.1084 10.6836 35.9111 10.3145 36.9014 10.3145C38.0732 10.3145 38.9844 10.748 39.6348 11.6152C40.2852 12.4824 40.6104 13.6777 40.6104 15.2012V15.333ZM38.0703 15.1484C38.0703 14.2637 37.9121 13.5811 37.5957 13.1006C37.2852 12.6201 36.8311 12.3799 36.2334 12.3799C35.4365 12.3799 34.8887 12.6846 34.5898 13.2939V17.1875C34.9004 17.8145 35.4541 18.1279 36.251 18.1279C37.4639 18.1279 38.0703 17.1348 38.0703 15.1484ZM47.5361 12.8721C47.1904 12.8252 46.8857 12.8018 46.6221 12.8018C45.6611 12.8018 45.0312 13.127 44.7324 13.7773V20H42.1924V10.4902H44.5918L44.6621 11.624C45.1719 10.751 45.8779 10.3145 46.7803 10.3145C47.0615 10.3145 47.3252 10.3525 47.5713 10.4287L47.5361 12.8721ZM54.0137 20C53.8965 19.7715 53.8115 19.4873 53.7588 19.1475C53.1436 19.833 52.3438 20.1758 51.3594 20.1758C50.4277 20.1758 49.6543 19.9062 49.0391 19.3672C48.4297 18.8281 48.125 18.1484 48.125 17.3281C48.125 16.3203 48.4971 15.5469 49.2412 15.0078C49.9912 14.4688 51.0723 14.1963 52.4844 14.1904H53.6533V13.6455C53.6533 13.2061 53.5391 12.8545 53.3105 12.5908C53.0879 12.3271 52.7334 12.1953 52.2471 12.1953C51.8193 12.1953 51.4824 12.2979 51.2363 12.5029C50.9961 12.708 50.876 12.9893 50.876 13.3467H48.3359C48.3359 12.7959 48.5059 12.2861 48.8457 11.8174C49.1855 11.3486 49.666 10.9824 50.2871 10.7188C50.9082 10.4492 51.6055 10.3145 52.3789 10.3145C53.5508 10.3145 54.4795 10.6104 55.165 11.2021C55.8564 11.7881 56.2021 12.6143 56.2021 13.6807V17.8027C56.208 18.7051 56.334 19.3877 56.5801 19.8506V20H54.0137ZM51.9131 18.2334C52.2881 18.2334 52.6338 18.1514 52.9502 17.9873C53.2666 17.8174 53.501 17.5918 53.6533 17.3105V15.6758H52.7041C51.4326 15.6758 50.7559 16.1152 50.6738 16.9941L50.665 17.1436C50.665 17.46 50.7764 17.7207 50.999 17.9258C51.2217 18.1309 51.5264 18.2334 51.9131 18.2334ZM66.4238 16.5459L67.6719 10.4902H70.124L67.6982 20H65.5713L63.7695 14.0146L61.9678 20H59.8496L57.4238 10.4902H59.876L61.1152 16.5371L62.8555 10.4902H64.6924L66.4238 16.5459ZM70.9941 15.1748C70.9941 13.6924 71.3252 12.5117 71.9873 11.6328C72.6553 10.7539 73.5664 10.3145 74.7207 10.3145C75.6465 10.3145 76.4111 10.6602 77.0146 11.3516V6.5H79.5635V20H77.2695L77.1465 18.9893C76.5137 19.7803 75.6992 20.1758 74.7031 20.1758C73.584 20.1758 72.6846 19.7363 72.0049 18.8574C71.3311 17.9727 70.9941 16.7451 70.9941 15.1748ZM73.5342 15.3594C73.5342 16.25 73.6895 16.9326 74 17.4072C74.3105 17.8818 74.7617 18.1191 75.3535 18.1191C76.1387 18.1191 76.6924 17.7881 77.0146 17.126V13.373C76.6982 12.7109 76.1504 12.3799 75.3711 12.3799C74.1465 12.3799 73.5342 13.373 73.5342 15.3594ZM84.4502 17.9521H89.0996V20H81.207V18.4531L85.6807 12.5469H81.3389V10.4902H88.959V11.9932L84.4502 17.9521ZM85.6543 6.5H88.4229L85.9883 9.22461H83.9229L85.6543 6.5ZM100.323 17.3721C100.323 17.0615 100.168 16.8184 99.8574 16.6426C99.5527 16.4609 99.0605 16.2998 98.3809 16.1592C96.1191 15.6846 94.9883 14.7236 94.9883 13.2764C94.9883 12.4326 95.3369 11.7295 96.0342 11.167C96.7373 10.5986 97.6543 10.3145 98.7852 10.3145C99.9922 10.3145 100.956 10.5986 101.677 11.167C102.403 11.7354 102.767 12.4736 102.767 13.3818H100.227C100.227 13.0186 100.109 12.7197 99.875 12.4854C99.6406 12.2451 99.2744 12.125 98.7764 12.125C98.3486 12.125 98.0176 12.2217 97.7832 12.415C97.5488 12.6084 97.4316 12.8545 97.4316 13.1533C97.4316 13.4346 97.5635 13.6631 97.8271 13.8389C98.0967 14.0088 98.5479 14.1582 99.1807 14.2871C99.8135 14.4102 100.347 14.5508 100.78 14.709C102.122 15.2012 102.793 16.0537 102.793 17.2666C102.793 18.1338 102.421 18.8369 101.677 19.376C100.933 19.9092 99.9717 20.1758 98.7939 20.1758C97.9971 20.1758 97.2881 20.0352 96.667 19.7539C96.0518 19.4668 95.5684 19.0771 95.2168 18.585C94.8652 18.0869 94.6895 17.5508 94.6895 16.9766H97.0977C97.1211 17.4277 97.2881 17.7734 97.5986 18.0137C97.9092 18.2539 98.3252 18.374 98.8467 18.374C99.333 18.374 99.6992 18.2832 99.9453 18.1016C100.197 17.9141 100.323 17.6709 100.323 17.3721ZM107.117 20H104.568V10.4902H107.117V20ZM104.419 8.0293C104.419 7.64844 104.545 7.33496 104.797 7.08887C105.055 6.84277 105.403 6.71973 105.843 6.71973C106.276 6.71973 106.622 6.84277 106.88 7.08887C107.138 7.33496 107.267 7.64844 107.267 8.0293C107.267 8.41602 107.135 8.73242 106.871 8.97852C106.613 9.22461 106.271 9.34766 105.843 9.34766C105.415 9.34766 105.069 9.22461 104.806 8.97852C104.548 8.73242 104.419 8.41602 104.419 8.0293ZM117.304 18.4619C116.94 18.9951 116.422 19.417 115.748 19.7275H115.757C115.323 19.9736 114.989 20.2139 114.755 20.4482C114.521 20.6885 114.403 20.9639 114.403 21.2744C114.403 21.6553 114.597 21.8457 114.983 21.8457C115.177 21.8457 115.411 21.7871 115.687 21.6699L115.941 23.0498C115.514 23.3076 115.03 23.4365 114.491 23.4365C113.905 23.4365 113.425 23.2725 113.05 22.9443C112.681 22.6221 112.496 22.1738 112.496 21.5996C112.496 21.0312 112.681 20.5479 113.05 20.1494C111.796 20.0381 110.785 19.5635 110.018 18.7256C109.256 17.8818 108.875 16.8066 108.875 15.5V15.2275C108.875 14.2725 109.06 13.4199 109.429 12.6699C109.798 11.9141 110.319 11.334 110.993 10.9297C111.673 10.5195 112.446 10.3145 113.313 10.3145C114.614 10.3145 115.637 10.7246 116.381 11.5449C117.131 12.3652 117.506 13.5283 117.506 15.0342V16.0713H111.45C111.532 16.6924 111.778 17.1904 112.188 17.5654C112.604 17.9404 113.129 18.1279 113.762 18.1279C114.74 18.1279 115.505 17.7734 116.056 17.0645L117.304 18.4619ZM113.305 12.3711C112.801 12.3711 112.391 12.541 112.074 12.8809C111.764 13.2207 111.564 13.707 111.477 14.3398H115.01V14.1377C114.998 13.5752 114.846 13.1416 114.553 12.8369C114.26 12.5264 113.844 12.3711 113.305 12.3711Z" fill="white"/>
</svg>
