<svg width="80" height="80" viewBox="0 0 80 80" fill="none" xmlns="http://www.w3.org/2000/svg">
<circle cx="40" cy="40" r="36" fill="url(#paint0_linear)" stroke="url(#paint1_linear)" stroke-width="8"/>
<path d="M30.048 39.448C27.264 38.344 25.68 35.848 25.68 33.424V30.52H23.784V33.424C23.784 35.872 22.104 38.704 19.296 39.976L20.352 41.488C22.44 40.552 23.976 38.728 24.744 36.688C25.512 38.536 27 40.12 28.992 40.936L30.048 39.448ZM22.968 45.04H35.472V50.776H37.44V43.456H22.968V45.04ZM35.544 29.272V34.864H32.808V29.632H30.936V42.136H32.808V36.472H35.544V42.28H37.44V29.272H35.544ZM48.9341 40.384C52.3901 37.792 53.7101 34.696 53.7101 30.448H48.5021V32.056H51.8381C51.5501 35.128 50.3021 37.312 47.5661 39.232L48.9341 40.384ZM41.9261 30.448V32.056H45.7421C45.3821 34.912 43.8941 36.592 41.4461 38.176L42.7421 39.424C46.0061 37.192 47.6381 34.648 47.6381 30.448H41.9261ZM46.3181 46.528H58.0781V41.248H44.3261V42.808H56.1341V45.04H44.3741V50.488H58.9181V48.928H46.3181V46.528ZM58.0781 33.952V29.248H56.1101V40.24H58.0781V35.584H61.2461V33.952H58.0781Z" fill="white"/>
<defs>
<linearGradient id="paint0_linear" x1="40" y1="0" x2="40" y2="80" gradientUnits="userSpaceOnUse">
<stop/>
<stop offset="1" stop-color="#262626" stop-opacity="0"/>
</linearGradient>
<linearGradient id="paint1_linear" x1="40" y1="0" x2="40" y2="80" gradientUnits="userSpaceOnUse">
<stop stop-color="#880000"/>
<stop offset="1" stop-color="#690000" stop-opacity="0.3"/>
</linearGradient>
</defs>
</svg>
