<svg width="80" height="80" viewBox="0 0 80 80" fill="none" xmlns="http://www.w3.org/2000/svg">
<circle cx="40" cy="40" r="36" fill="url(#paint0_linear)" stroke="url(#paint1_linear)" stroke-width="8"/>
<path d="M28.992 29.728C24.336 29.728 21.432 31.24 21.432 33.808C21.432 36.352 24.336 37.864 28.992 37.864C33.648 37.864 36.552 36.352 36.552 33.808C36.552 31.24 33.648 29.728 28.992 29.728ZM28.992 31.288C32.4 31.288 34.536 32.224 34.536 33.808C34.536 35.392 32.4 36.328 28.992 36.328C25.584 36.328 23.448 35.392 23.448 33.808C23.448 32.224 25.584 31.288 28.992 31.288ZM21.672 43.408V50.488H36.36V43.408H21.672ZM34.44 44.968V48.904H23.592V44.968H34.44ZM19.272 39.712V41.296H38.736V39.712H19.272ZM54.3341 39.376C51.1421 38.272 48.9341 35.464 48.9341 32.368V30.256H46.9661V32.368C46.9661 35.584 44.7821 38.584 41.5421 39.76L42.5501 41.32C45.0701 40.36 47.0381 38.368 47.9741 35.824C48.9341 38.2 50.8781 40.048 53.3501 40.936L54.3341 39.376ZM44.6141 44.896H57.0461V50.8H59.0141V43.312H44.6141V44.896ZM57.0461 29.272V42.208H59.0141V29.272H57.0461Z" fill="white"/>
<defs>
<linearGradient id="paint0_linear" x1="40" y1="0" x2="40" y2="80" gradientUnits="userSpaceOnUse">
<stop/>
<stop offset="1" stop-color="#262626" stop-opacity="0"/>
</linearGradient>
<linearGradient id="paint1_linear" x1="40" y1="0" x2="40" y2="80" gradientUnits="userSpaceOnUse">
<stop stop-color="#880000"/>
<stop offset="1" stop-color="#690000" stop-opacity="0.3"/>
</linearGradient>
</defs>
</svg>
