<svg width="28" height="28" viewBox="0 0 28 28" fill="none" xmlns="http://www.w3.org/2000/svg">
<path d="M14 3.5C13.4633 3.5 12.915 3.54667 12.3666 3.66333C9.14665 4.28167 6.57998 6.88333 5.97331 10.1033C5.41331 13.1483 6.53332 15.9483 8.56332 17.7567C9.06498 18.2 9.33332 18.8183 9.33332 19.4717V22.1667C9.33332 23.45 10.3833 24.5 11.6666 24.5H11.9933C12.4016 25.2 13.1366 25.6667 14 25.6667C14.8633 25.6667 15.61 25.2 16.0066 24.5H16.3333C17.6166 24.5 18.6666 23.45 18.6666 22.1667V19.4717C18.6666 18.83 18.9233 18.2 19.4133 17.7683C21.105 16.275 22.1666 14.0933 22.1666 11.6667C22.1666 7.15167 18.515 3.5 14 3.5ZM16.3333 19.8333H11.6666V18.6667H16.3333V19.8333ZM11.6666 22.1667V21H16.3333V22.1667H11.6666ZM17.8616 16.03C17.7566 16.1233 17.675 16.24 17.5816 16.3333H10.4066C10.3133 16.2283 10.2316 16.1117 10.1266 16.0183C8.58665 14.6417 7.89832 12.5883 8.27165 10.535C8.69165 8.27167 10.5583 6.39333 12.81 5.95C13.2066 5.86833 13.6033 5.83333 14 5.83333C17.22 5.83333 19.8333 8.44667 19.8333 11.6667C19.8333 13.335 19.1216 14.9217 17.8616 16.03Z" fill="#D1C900"/>
<path d="M14.5833 12.8333H13.4166V16.3332H14.5833V12.8333Z" fill="#D1C900"/>
<path d="M12.1094 10.3527L11.2844 11.1776L13.7593 13.6525L14.5842 12.8275L12.1094 10.3527Z" fill="#D1C900"/>
<path d="M13.4178 12.8394L14.2427 13.6643L16.7176 11.1895L15.8926 10.3645L13.4178 12.8394Z" fill="#D1C900"/>
</svg>
