<svg width="146" height="146" viewBox="0 0 146 146" fill="none" xmlns="http://www.w3.org/2000/svg">
<rect width="146" height="146" rx="33" fill="black"/>
<path d="M26.656 101.264H41.992C42.352 101.264 42.664 101.396 42.928 101.66C43.192 101.924 43.324 102.2 43.324 102.488C43.324 102.776 43.192 103.076 42.928 103.388C42.664 103.7 42.352 103.856 41.992 103.856H35.908C34.684 103.976 33.676 104.456 32.884 105.296C32.092 106.112 31.696 107.264 31.696 108.752C31.696 109.784 31.996 110.6 32.596 111.2C33.196 111.8 33.892 112.1 34.684 112.1C35.62 112.1 36.364 111.824 36.916 111.272C37.468 110.72 37.744 110.036 37.744 109.22C37.744 108.404 37.6 107.756 37.312 107.276C37.048 106.796 36.568 106.412 35.872 106.124C35.656 106.052 35.452 105.956 35.26 105.836C35.092 105.692 35.044 105.476 35.116 105.188C35.188 104.876 35.416 104.696 35.8 104.648C36.184 104.576 36.472 104.54 36.664 104.54C38.032 104.54 39.208 104.948 40.192 105.764C41.176 106.556 41.668 107.672 41.668 109.112C41.668 110.048 41.476 110.876 41.092 111.596C40.708 112.316 40.204 112.928 39.58 113.432C38.932 113.912 38.176 114.284 37.312 114.548C36.472 114.788 35.584 114.908 34.648 114.908C33.592 114.908 32.644 114.74 31.804 114.404C30.964 114.068 30.244 113.624 29.644 113.072C29.068 112.52 28.612 111.872 28.276 111.128C27.964 110.384 27.808 109.616 27.808 108.824C27.808 107.864 28.012 106.964 28.42 106.124C28.852 105.26 29.464 104.504 30.256 103.856H26.584C26.2 103.856 25.912 103.7 25.72 103.388C25.528 103.076 25.432 102.776 25.432 102.488C25.432 102.224 25.54 101.96 25.756 101.696C25.996 101.408 26.296 101.264 26.656 101.264ZM31.228 98.528L29.392 96.98C29.104 96.764 28.924 96.5 28.852 96.188C28.78 95.852 28.888 95.552 29.176 95.288C29.416 95.072 29.704 94.976 30.04 95C30.4 95 30.7 95.06 30.94 95.18C31.876 95.636 32.788 95.972 33.676 96.188C34.588 96.404 35.716 96.512 37.06 96.512C37.588 96.512 37.996 96.644 38.284 96.908C38.572 97.172 38.716 97.484 38.716 97.844C38.716 98.276 38.524 98.6 38.14 98.816C37.78 99.008 37.42 99.104 37.06 99.104H33.856C33.184 99.104 32.656 99.056 32.272 98.96C31.888 98.864 31.54 98.72 31.228 98.528ZM51.244 96.044V104.792H56.284C56.596 104.792 56.896 104.924 57.184 105.188C57.496 105.452 57.652 105.764 57.652 106.124C57.652 106.484 57.496 106.796 57.184 107.06C56.896 107.3 56.608 107.42 56.32 107.42H51.244V115.556C51.244 116.78 50.992 117.704 50.488 118.328C49.984 118.928 49.3 119.228 48.436 119.228H47.5V98.24C47.5 97.52 47.38 97.064 47.14 96.872C46.9 96.656 46.516 96.476 45.988 96.332C45.34 96.26 44.884 96.128 44.62 95.936C44.356 95.72 44.224 95.468 44.224 95.18C44.224 94.868 44.368 94.628 44.656 94.46C44.968 94.268 45.316 94.172 45.7 94.172H49.48C49.936 94.172 50.344 94.376 50.704 94.784C51.064 95.168 51.244 95.588 51.244 96.044ZM33.964 123.908V121.424C33.964 120.728 33.88 120.296 33.712 120.128C33.568 119.936 33.196 119.768 32.596 119.624C31.972 119.48 31.564 119.324 31.372 119.156C31.18 118.964 31.084 118.676 31.084 118.292C31.084 118.004 31.264 117.788 31.624 117.644C32.008 117.476 32.344 117.392 32.632 117.392H35.908C36.388 117.392 36.82 117.572 37.204 117.932C37.588 118.292 37.78 118.724 37.78 119.228V123.944C37.78 124.232 37.852 124.46 37.996 124.628C38.164 124.82 38.392 124.916 38.68 124.916H50.632C50.992 124.916 51.316 125.06 51.604 125.348C51.916 125.636 52.072 125.948 52.072 126.284C52.072 126.572 51.928 126.86 51.64 127.148C51.352 127.46 51.028 127.616 50.668 127.616H38.176C36.856 127.616 35.812 127.34 35.044 126.788C34.3 126.236 33.94 125.276 33.964 123.908ZM82.8576 98.024C82.8576 99.704 82.7736 101.324 82.6056 102.884C82.4376 104.42 82.1616 105.896 81.7776 107.312H88.4736C88.9296 107.312 89.2656 107.48 89.4816 107.816C89.7216 108.128 89.8416 108.428 89.8416 108.716C89.8416 109.004 89.7096 109.292 89.4456 109.58C89.2056 109.868 88.8816 110.012 88.4736 110.012H76.0176V112.28C76.0176 112.832 75.9576 113.324 75.8376 113.756C75.7416 114.188 75.6096 114.56 75.4416 114.872H81.0216C81.5256 114.872 81.9576 115.028 82.3176 115.34C82.6776 115.652 82.8576 116.072 82.8576 116.6V123.728C82.8576 124.856 82.5816 125.744 82.0296 126.392C81.5016 127.04 80.8656 127.364 80.1216 127.364H79.0416V117.572H65.3976C65.0136 117.572 64.7016 117.428 64.4616 117.14C64.2456 116.828 64.1376 116.528 64.1376 116.24C64.1376 115.952 64.2576 115.652 64.4976 115.34C64.7376 115.028 65.0736 114.872 65.5056 114.872H72.3456V110.012H59.8176C59.4336 110.012 59.1096 109.868 58.8456 109.58C58.6056 109.292 58.4856 108.992 58.4856 108.68C58.4856 108.344 58.6056 108.032 58.8456 107.744C59.1096 107.456 59.4336 107.312 59.8176 107.312H78.5376C78.6576 106.616 78.7416 105.92 78.7896 105.224C78.8376 104.528 78.8736 103.82 78.8976 103.1C78.8976 102.404 78.8976 101.696 78.8976 100.976C78.8976 100.232 78.8976 99.464 78.8976 98.672H65.6496C65.3376 98.672 65.0616 98.528 64.8216 98.24C64.5816 97.952 64.4616 97.652 64.4616 97.34C64.4616 97.052 64.5816 96.764 64.8216 96.476C65.0856 96.188 65.3976 96.044 65.7576 96.044H81.0936C81.7176 96.044 82.1616 96.272 82.4256 96.728C82.7136 97.16 82.8576 97.592 82.8576 98.024ZM91.0797 107.024C91.0797 105.944 91.2957 104.936 91.7277 104C92.1597 103.04 92.7597 102.2 93.5277 101.48C94.2717 100.784 95.1477 100.232 96.1557 99.824C97.1877 99.392 98.2797 99.176 99.4317 99.176C100.44 99.176 101.388 99.344 102.276 99.68C103.188 99.992 104.004 100.436 104.724 101.012C105.444 101.588 106.044 102.272 106.524 103.064C107.028 103.832 107.376 104.672 107.568 105.584H113.472V98.24C113.472 97.52 113.364 97.064 113.148 96.872C112.932 96.656 112.536 96.488 111.96 96.368C111.36 96.296 110.928 96.164 110.664 95.972C110.4 95.78 110.268 95.54 110.268 95.252C110.268 94.916 110.412 94.652 110.7 94.46C111.012 94.268 111.348 94.172 111.708 94.172H115.488C115.968 94.172 116.388 94.376 116.748 94.784C117.132 95.192 117.324 95.624 117.324 96.08V122.216C117.324 123.44 117.06 124.352 116.532 124.952C116.004 125.576 115.32 125.888 114.48 125.888H113.472V108.32H107.604C107.436 109.28 107.1 110.156 106.596 110.948C106.116 111.74 105.516 112.424 104.796 113C104.076 113.576 103.248 114.02 102.312 114.332C101.4 114.644 100.44 114.8 99.4317 114.8C98.2797 114.8 97.1877 114.608 96.1557 114.224C95.1477 113.816 94.2717 113.252 93.5277 112.532C92.7597 111.836 92.1597 111.02 91.7277 110.084C91.2957 109.124 91.0797 108.104 91.0797 107.024ZM95.0397 107.024C95.0397 108.464 95.4717 109.664 96.3357 110.624C97.1997 111.584 98.2317 112.064 99.4317 112.064C100.632 112.064 101.652 111.584 102.492 110.624C103.356 109.64 103.788 108.44 103.788 107.024C103.788 106.352 103.656 105.704 103.392 105.08C103.152 104.456 102.84 103.916 102.456 103.46C102.048 103.004 101.58 102.644 101.052 102.38C100.524 102.092 99.9837 101.948 99.4317 101.948C98.1597 101.948 97.1037 102.452 96.2637 103.46C95.4477 104.468 95.0397 105.656 95.0397 107.024Z" fill="#DE1111"/>
<rect x="61" y="18" width="3" height="66" fill="white"/>
<rect x="68" y="26" width="3" height="50" fill="white"/>
<rect x="75" y="33" width="3" height="36" fill="white"/>
<rect x="82" y="31" width="3" height="40" fill="white"/>
<rect x="89" y="36" width="3" height="30" fill="white"/>
<rect x="103" y="36" width="3" height="30" fill="white"/>
<rect x="110" y="45" width="3" height="12" fill="white"/>
<rect x="96" y="27" width="3" height="48" fill="white"/>
<rect x="54" y="31" width="3" height="40" fill="white"/>
<rect x="33" y="41" width="3" height="20" fill="white"/>
<rect x="40" y="28" width="3" height="46" fill="white"/>
<rect x="47" y="37" width="3" height="28" fill="white"/>
</svg>
