<svg width="68" height="50" viewBox="0 0 68 50" fill="none" xmlns="http://www.w3.org/2000/svg">
<path d="M25.4219 20.0469V26.6025C25.4219 27.6917 25.0801 28.5531 24.3965 29.1865C23.7174 29.82 22.7878 30.1367 21.6074 30.1367C20.4453 30.1367 19.5225 29.8291 18.8389 29.2139C18.1553 28.5986 17.8066 27.7533 17.793 26.6777V20.0469H19.8438V26.6162C19.8438 27.2679 19.9987 27.7441 20.3086 28.0449C20.623 28.3411 21.056 28.4893 21.6074 28.4893C22.7604 28.4893 23.346 27.8831 23.3643 26.6709V20.0469H25.4219ZM34.917 26.6846C34.8395 27.7555 34.443 28.5986 33.7275 29.2139C33.0166 29.8291 32.0778 30.1367 30.9111 30.1367C29.6351 30.1367 28.6302 29.7083 27.8965 28.8516C27.1673 27.9902 26.8027 26.8099 26.8027 25.3105V24.7021C26.8027 23.7451 26.9714 22.902 27.3086 22.1729C27.6458 21.4437 28.1266 20.8854 28.751 20.498C29.3799 20.1061 30.109 19.9102 30.9385 19.9102C32.0869 19.9102 33.012 20.2178 33.7139 20.833C34.4157 21.4482 34.8213 22.3118 34.9307 23.4238H32.8799C32.8298 22.7812 32.6497 22.3164 32.3398 22.0293C32.0345 21.7376 31.5674 21.5918 30.9385 21.5918C30.2549 21.5918 29.7422 21.8379 29.4004 22.3301C29.0632 22.8177 28.89 23.5765 28.8809 24.6064V25.3584C28.8809 26.4339 29.0426 27.2201 29.3662 27.7168C29.6943 28.2135 30.2093 28.4619 30.9111 28.4619C31.5446 28.4619 32.0163 28.3184 32.3262 28.0312C32.6406 27.7396 32.8206 27.2907 32.8662 26.6846H34.917ZM38.4375 28.3525H43.4551V30H35.874V28.7969L40.7959 21.708H35.8809V20.0469H43.3457V21.2227L38.4375 28.3525ZM53.4014 27.3887C53.4014 27.0013 53.2646 26.7051 52.9912 26.5C52.7178 26.2904 52.2256 26.0716 51.5146 25.8438C50.8037 25.6113 50.2409 25.3835 49.8262 25.1602C48.696 24.5495 48.1309 23.7269 48.1309 22.6924C48.1309 22.1546 48.2812 21.6761 48.582 21.2568C48.8874 20.833 49.3226 20.5026 49.8877 20.2656C50.4574 20.0286 51.0954 19.9102 51.8018 19.9102C52.5127 19.9102 53.1462 20.04 53.7021 20.2998C54.2581 20.555 54.6888 20.9173 54.9941 21.3867C55.304 21.8561 55.459 22.3893 55.459 22.9863H53.4082C53.4082 22.5306 53.2646 22.1774 52.9775 21.9268C52.6904 21.6715 52.2871 21.5439 51.7676 21.5439C51.2663 21.5439 50.8766 21.651 50.5986 21.8652C50.3206 22.0749 50.1816 22.3529 50.1816 22.6992C50.1816 23.0228 50.3434 23.2939 50.667 23.5127C50.9951 23.7314 51.4759 23.9365 52.1094 24.1279C53.276 24.4788 54.126 24.9141 54.6592 25.4336C55.1924 25.9531 55.459 26.6003 55.459 27.375C55.459 28.2363 55.1331 28.9131 54.4814 29.4053C53.8298 29.8929 52.9525 30.1367 51.8496 30.1367C51.084 30.1367 50.3867 29.9977 49.7578 29.7197C49.1289 29.4372 48.6481 29.0521 48.3154 28.5645C47.9873 28.0768 47.8232 27.5117 47.8232 26.8691H49.8809C49.8809 27.9674 50.5371 28.5166 51.8496 28.5166C52.3372 28.5166 52.7178 28.4186 52.9912 28.2227C53.2646 28.0221 53.4014 27.7441 53.4014 27.3887ZM59.0342 30H56.9834V20.0469H59.0342V30ZM66.9297 25.6865H62.9922V28.3525H67.6133V30H66.5742C66.237 30.1914 65.9772 30.3783 65.7949 30.5605C65.6126 30.7474 65.5215 30.9616 65.5215 31.2031C65.5215 31.4993 65.6719 31.6475 65.9727 31.6475C66.123 31.6475 66.3053 31.6019 66.5195 31.5107L66.7178 32.584C66.3851 32.7845 66.0091 32.8848 65.5898 32.8848C65.1341 32.8848 64.7604 32.7572 64.4688 32.502C64.1816 32.2513 64.0381 31.9027 64.0381 31.4561C64.0381 30.8773 64.3024 30.3919 64.8311 30H60.9414V20.0469H67.5996V21.708H62.9922V24.0801H66.9297V25.6865Z" fill="white"/>
<line x1="0.5" y1="-2.18557e-08" x2="0.500002" y2="50" stroke="#555555"/>
</svg>
