<svg width="31" height="31" viewBox="0 0 31 31" fill="none" xmlns="http://www.w3.org/2000/svg">
<path d="M15.5 18.0834C17.6442 18.0834 19.375 16.3525 19.375 14.2084V6.45837C19.375 4.31421 17.6442 2.58337 15.5 2.58337C13.3558 2.58337 11.625 4.31421 11.625 6.45837V14.2084C11.625 16.3525 13.3558 18.0834 15.5 18.0834Z" fill="white"/>
<path d="M21.9583 14.2084C21.9583 17.7734 19.065 20.6667 15.5 20.6667C11.935 20.6667 9.04168 17.7734 9.04168 14.2084H6.45834C6.45834 18.768 9.82959 22.5138 14.2083 23.1467V27.125H16.7917V23.1467C21.1704 22.5138 24.5417 18.768 24.5417 14.2084H21.9583Z" fill="white"/>
</svg>
