<?xml version="1.0" encoding="UTF-8" standalone="no"?>
<!DOCTYPE svg PUBLIC "-//W3C//DTD SVG 1.1//EN" "http://www.w3.org/Graphics/SVG/1.1/DTD/svg11.dtd">
<svg version="1.1" xmlns="http://www.w3.org/2000/svg" xmlns:xlink="http://www.w3.org/1999/xlink" preserveAspectRatio="xMidYMid meet" viewBox="0 0 24 24" width="24" height="24"><defs><path d="M21.17 21.16C21.82 22.35 20.3 22.23 16.62 20.8C11.1 18.64 9.8 21.69 7.25 22.05C5.55 22.29 4.27 21.75 3.41 20.44" id="aAuqwtvt9"></path><path d="M3.31 20.03L7.06 20.03L18.12 8.97L14.37 5.22L3.31 16.28L3.31 20.03ZM5.31 18.03L5.31 17.11L14.37 8.05L15.29 8.97L6.23 18.03L5.31 18.03ZM18.68 2.32C18.48 2.12 18.23 2.03 17.97 2.03C17.71 2.03 17.46 2.13 17.27 2.32C17.15 2.45 16.54 3.06 15.44 4.15L19.19 7.9C20.29 6.81 20.9 6.2 21.02 6.07C21.41 5.68 21.41 5.05 21.02 4.66C20.55 4.2 18.92 2.56 18.68 2.32Z" id="ea2MLtVIG"></path></defs><g><g><g><g><use xlink:href="#aAuqwtvt9" opacity="1" fill-opacity="0" stroke="#000000" stroke-width="1" stroke-opacity="1"></use></g></g><g><use xlink:href="#ea2MLtVIG" opacity="1" fill="#000000" fill-opacity="1"></use><g><use xlink:href="#ea2MLtVIG" opacity="1" fill-opacity="0" stroke="#000000" stroke-width="1" stroke-opacity="0"></use></g></g></g></g></svg>