<svg width="80" height="66" viewBox="0 0 80 66" fill="none" xmlns="http://www.w3.org/2000/svg">
<rect width="3" height="66" transform="matrix(-1 0 0 1 52 0)" fill="white"/>
<rect width="3" height="50" transform="matrix(-1 0 0 1 45 8)" fill="white"/>
<rect width="3" height="36" transform="matrix(-1 0 0 1 38 15)" fill="white"/>
<rect width="3" height="40" transform="matrix(-1 0 0 1 31 13)" fill="white"/>
<rect width="3" height="30" transform="matrix(-1 0 0 1 24 18)" fill="white"/>
<rect width="3" height="30" transform="matrix(-1 0 0 1 10 18)" fill="white"/>
<rect width="3" height="12" transform="matrix(-1 0 0 1 3 27)" fill="white"/>
<rect width="3" height="48" transform="matrix(-1 0 0 1 17 9)" fill="white"/>
<rect width="3" height="40" transform="matrix(-1 0 0 1 59 13)" fill="white"/>
<rect width="3" height="20" transform="matrix(-1 0 0 1 80 23)" fill="white"/>
<rect width="3" height="46" transform="matrix(-1 0 0 1 73 10)" fill="white"/>
<rect width="3" height="28" transform="matrix(-1 0 0 1 66 19)" fill="white"/>
</svg>
